<svg xmlns="http://www.w3.org/2000/svg" width="16.688" height="22.25" viewBox="0 0 16.688 22.25"><defs><style>.a{fill:#c9c9c9;}</style></defs><path class="a" d="M17.6,8.344h-.7V5.563a5.563,5.563,0,0,0-11.125,0V8.344h-.7A2.088,2.088,0,0,0,3,10.43v9.734A2.088,2.088,0,0,0,5.086,22.25H17.6a2.088,2.088,0,0,0,2.086-2.086V10.43A2.088,2.088,0,0,0,17.6,8.344ZM7.635,5.563a3.708,3.708,0,1,1,7.417,0V8.344H7.635Zm4.635,9.94v2.112a.927.927,0,1,1-1.854,0V15.5a1.854,1.854,0,1,1,1.854,0Z" transform="translate(-3)"/></svg>