<svg xmlns="http://www.w3.org/2000/svg" width="74.5" height="79.025" viewBox="0 0 74.5 79.025"><defs><style>.a{fill:#fff;}</style></defs><g transform="translate(-1.28)"><g transform="translate(1.28)"><path class="a" d="M43.25,64.177A4.469,4.469,0,0,1,40.794,65.9L35.86,67.249a4.427,4.427,0,0,1-5.6-3.876l-.433-5.095a4.365,4.365,0,0,1,.773-2.934l.182-.262h-17.6a2.59,2.59,0,0,1,0-5.18h21.3l4.761-6.8H13.185a2.591,2.591,0,0,1,0-5.181l29.729-.076L54.062,21.861V10.025a3.455,3.455,0,0,0-3.445-3.516H42.083v6.754a5.737,5.737,0,0,1-5.79,5.71H19.129a5.663,5.663,0,0,1-5.707-5.71V6.509H4.8A3.513,3.513,0,0,0,1.28,10.025v60.4a3.588,3.588,0,0,0,3.516,3.6H50.614a3.529,3.529,0,0,0,3.447-3.6v-21.6ZM13.185,25.939H42.23a2.59,2.59,0,0,1,0,5.18H13.185a2.59,2.59,0,0,1,0-5.18Z" transform="translate(-1.28 5.002)"/><path class="a" d="M12.423,20.577H29.571a2.355,2.355,0,0,0,2.354-2.356V8.359A2.355,2.355,0,0,0,29.571,6H26.987A6.036,6.036,0,0,0,14.916,6H12.423a2.353,2.353,0,0,0-2.354,2.356V18.22A2.355,2.355,0,0,0,12.423,20.577ZM20.954,3.344a2.69,2.69,0,0,1,2.69,2.661H18.259A2.694,2.694,0,0,1,20.954,3.344Z" transform="translate(5.474)"/><path class="a" d="M59.784,10.877A1.677,1.677,0,0,0,59.091,9.8L54.8,6.808a1.663,1.663,0,0,0-2.318.412L22.064,50.834l7.026,4.9L59.509,12.122A1.68,1.68,0,0,0,59.784,10.877Z" transform="translate(14.691 5)"/><path class="a" d="M19.357,37.044l.44,5.121a.983.983,0,0,0,.417.729,1.013,1.013,0,0,0,.568.184.933.933,0,0,0,.26-.037L26,41.682a1.007,1.007,0,0,0,.554-.389l1.862-2.67-7.031-4.9-1.862,2.67A.969.969,0,0,0,19.357,37.044Z" transform="translate(12.607 25.912)"/></g></g></svg>