<svg xmlns="http://www.w3.org/2000/svg" width="82.581" height="82.581" viewBox="0 0 82.581 82.581"><defs><style>.a,.b{fill:#6abe0f;}.b{font-size:22px;font-family:Raleway-Medium, Raleway;font-weight:500;letter-spacing:0.021em;}</style></defs><g transform="translate(0 38.538)"><path class="a" d="M82.581,228.129A4.129,4.129,0,0,0,78.452,224H45.419a4.129,4.129,0,0,0-4.129,4.129v2.753a4.1,4.1,0,0,0,1.074,2.753,4.1,4.1,0,0,0-1.074,2.753v2.753a4.1,4.1,0,0,0,1.074,2.753,4.1,4.1,0,0,0-1.074,2.753,4.129,4.129,0,0,0-4.129-4.129H4.129A4.129,4.129,0,0,0,0,244.645V247.4a4.1,4.1,0,0,0,1.074,2.753A4.1,4.1,0,0,0,0,252.9v2.753a4.1,4.1,0,0,0,1.074,2.753A4.1,4.1,0,0,0,0,261.161v2.753a4.129,4.129,0,0,0,4.129,4.129H37.161a4.129,4.129,0,0,0,4.129-4.129,4.129,4.129,0,0,0,4.129,4.129H78.452a4.129,4.129,0,0,0,4.129-4.129v-2.753a4.1,4.1,0,0,0-1.074-2.753,4.1,4.1,0,0,0,1.074-2.753V252.9a4.1,4.1,0,0,0-1.074-2.753,4.1,4.1,0,0,0,1.074-2.753v-2.753a4.1,4.1,0,0,0-1.074-2.753,4.1,4.1,0,0,0,1.074-2.753v-2.753a4.1,4.1,0,0,0-1.074-2.753,4.1,4.1,0,0,0,1.074-2.753ZM38.538,263.914a1.376,1.376,0,0,1-1.376,1.376H4.129a1.376,1.376,0,0,1-1.376-1.376v-2.753a1.376,1.376,0,0,1,1.376-1.376H37.161a1.376,1.376,0,0,1,1.376,1.376Zm0-8.258a1.376,1.376,0,0,1-1.376,1.376H4.129a1.376,1.376,0,0,1-1.376-1.376V252.9a1.376,1.376,0,0,1,1.376-1.376H37.161a1.376,1.376,0,0,1,1.376,1.376Zm0-8.258a1.376,1.376,0,0,1-1.376,1.376H4.129A1.376,1.376,0,0,1,2.753,247.4v-2.753a1.376,1.376,0,0,1,1.376-1.376H37.161a1.376,1.376,0,0,1,1.376,1.376Zm2.753,13.763a4.1,4.1,0,0,0-1.074-2.753,4.1,4.1,0,0,0,1.074-2.753,4.1,4.1,0,0,0,1.074,2.753A4.1,4.1,0,0,0,41.29,261.161Zm0-8.258a4.1,4.1,0,0,0-1.074-2.753A4.1,4.1,0,0,0,41.29,247.4a4.1,4.1,0,0,0,1.074,2.753A4.1,4.1,0,0,0,41.29,252.9Zm38.538,11.011a1.376,1.376,0,0,1-1.376,1.376H45.419a1.376,1.376,0,0,1-1.376-1.376v-2.753a1.376,1.376,0,0,1,1.376-1.376H78.452a1.376,1.376,0,0,1,1.376,1.376Zm0-8.258a1.376,1.376,0,0,1-1.376,1.376H45.419a1.376,1.376,0,0,1-1.376-1.376V252.9a1.376,1.376,0,0,1,1.376-1.376H78.452a1.376,1.376,0,0,1,1.376,1.376Zm0-8.258a1.376,1.376,0,0,1-1.376,1.376H45.419a1.376,1.376,0,0,1-1.376-1.376v-2.753a1.376,1.376,0,0,1,1.376-1.376H78.452a1.376,1.376,0,0,1,1.376,1.376Zm0-8.258a1.376,1.376,0,0,1-1.376,1.376H45.419a1.376,1.376,0,0,1-1.376-1.376v-2.753a1.376,1.376,0,0,1,1.376-1.376H78.452a1.376,1.376,0,0,1,1.376,1.376Zm0-8.258a1.376,1.376,0,0,1-1.376,1.376H45.419a1.376,1.376,0,0,1-1.376-1.376v-2.753a1.376,1.376,0,0,1,1.376-1.376H78.452a1.376,1.376,0,0,1,1.376,1.376Z" transform="translate(0 -224)"/></g><g transform="translate(42.667)"><path class="a" d="M267.269,0a19.269,19.269,0,1,0,19.269,19.269A19.269,19.269,0,0,0,267.269,0Zm0,35.785a16.516,16.516,0,1,1,16.516-16.516A16.516,16.516,0,0,1,267.269,35.785Z" transform="translate(-248)"/></g><g transform="translate(46.796 4.129)"><path class="a" d="M287.14,24a15.14,15.14,0,1,0,15.14,15.14A15.14,15.14,0,0,0,287.14,24Zm0,27.527A12.387,12.387,0,1,1,299.527,39.14,12.387,12.387,0,0,1,287.14,51.527Z" transform="translate(-272 -24)"/></g><text class="b" transform="translate(62 27.086)"><tspan x="-8.47" y="0">N</tspan></text><rect class="a" width="18" height="2" transform="translate(53 15.086)"/><rect class="a" width="18" height="2" transform="translate(53 19.086)"/></svg>