<svg xmlns="http://www.w3.org/2000/svg" width="88.086" height="88.086" viewBox="0 0 88.086 88.086"><defs><style>.a{fill:#6abe0f;}</style></defs><g transform="translate(60.043 39.914)"><path class="a" d="M350.72,232a1.72,1.72,0,1,0,1.72,1.72A1.721,1.721,0,0,0,350.72,232Z" transform="translate(-349 -232)"/></g><g transform="translate(14.28 6.882)"><path class="a" d="M84.72,40a1.72,1.72,0,1,0,1.72,1.72A1.721,1.721,0,0,0,84.72,40Z" transform="translate(-83 -40)"/></g><g transform="translate(6.882 6.916)"><path class="a" d="M56.069,40.2a1.72,1.72,0,0,0-.141,3.438c4.559.187,7.6,1.065,8.785,1.7-1.378.748-5.164,1.711-10.433,1.711-5.505,0-9.391-1.05-10.6-1.81a1.721,1.721,0,0,0-2.7-2.082A3.023,3.023,0,0,0,40,45.327c0,5.016,12.818,5.161,14.28,5.161s14.28-.145,14.28-5.161C68.559,41.046,59,40.321,56.069,40.2Z" transform="translate(-40 -40.2)"/></g><path class="a" d="M21.161,0C7.911,0,0,4.5,0,12.043v64c0,7.541,7.911,12.043,21.161,12.043s21.161-4.5,21.161-12.043v-64C42.323,4.5,34.412,0,21.161,0Zm17.72,76.043c0,5.386-6.625,8.6-17.72,8.6s-17.72-3.216-17.72-8.6V72.711c3.523,3.027,9.625,4.708,17.72,4.708s14.2-1.681,17.72-4.708Zm0-10.667c0,5.386-6.625,8.6-17.72,8.6s-17.72-3.216-17.72-8.6V62.045c3.523,3.027,9.625,4.708,17.72,4.708s14.2-1.681,17.72-4.708Zm0-10.667c0,5.386-6.625,8.6-17.72,8.6S3.441,60.1,3.441,54.71V51.378c3.523,3.027,9.625,4.708,17.72,4.708s14.2-1.681,17.72-4.708Zm0-10.667c0,5.386-6.625,8.6-17.72,8.6s-17.72-3.216-17.72-8.6V40.711c3.523,3.027,9.625,4.708,17.72,4.708s14.2-1.681,17.72-4.708Zm0-10.667c0,5.386-6.625,8.6-17.72,8.6s-17.72-3.216-17.72-8.6V30.045c3.523,3.027,9.625,4.708,17.72,4.708,8.016,0,14.167-1.791,17.72-4.942Zm0-11.011c0,2.594-1.453,4.709-4.319,6.286-3.164,1.74-7.8,2.66-13.4,2.66-11.1,0-17.72-3.216-17.72-8.6V19.378c3.523,3.027,9.625,4.708,17.72,4.708s14.2-1.681,17.72-4.708Zm-17.72-1.72c-11.1,0-17.72-3.216-17.72-8.6s6.625-8.6,17.72-8.6,17.72,3.216,17.72,8.6S32.257,20.645,21.161,20.645Z"/><g transform="translate(52.645 39.948)"><path class="a" d="M322.069,232.2a1.72,1.72,0,0,0-.141,3.438c4.559.187,7.6,1.065,8.785,1.7-1.378.748-5.164,1.711-10.433,1.711-5.505,0-9.391-1.05-10.6-1.81a1.721,1.721,0,0,0-2.7-2.082,3.022,3.022,0,0,0-.973,2.171c0,5.016,12.818,5.161,14.28,5.161s14.28-.145,14.28-5.161C334.559,233.045,325,232.321,322.069,232.2Z" transform="translate(-306 -232.199)"/></g><g transform="translate(45.763 33.032)"><path class="a" d="M287.161,192C273.911,192,266,196.5,266,204.043v30.968c0,7.541,7.911,12.043,21.161,12.043s21.161-4.5,21.161-12.043V204.043C308.323,196.5,300.412,192,287.161,192Zm17.72,43.011c0,5.387-6.625,8.6-17.72,8.6s-17.72-3.216-17.72-8.6v-2.988c3.523,3.027,9.625,4.708,17.72,4.708s14.2-1.681,17.72-4.708Zm0-10.323c0,5.387-6.625,8.6-17.72,8.6s-17.72-3.216-17.72-8.6V221.7c3.523,3.027,9.625,4.708,17.72,4.708s14.2-1.681,17.72-4.708Zm0-10.323c0,5.386-6.625,8.6-17.72,8.6s-17.72-3.216-17.72-8.6v-2.988c3.523,3.027,9.625,4.708,17.72,4.708s14.2-1.681,17.72-4.708Zm-17.72-1.72c-11.1,0-17.72-3.216-17.72-8.6s6.625-8.6,17.72-8.6,17.72,3.216,17.72,8.6S298.257,212.645,287.161,212.645Z" transform="translate(-266 -192)"/></g></svg>