<svg xmlns="http://www.w3.org/2000/svg" width="78.983" height="59.402" viewBox="0 0 78.983 59.402"><defs><style>.a{fill:#fff;}</style></defs><g transform="translate(0 -60.15)"><g transform="translate(0 60.15)"><g transform="translate(23.51 18.968)"><path class="a" d="M192.677,176.681H151.658a7.253,7.253,0,0,0-7.227,7.227v25.979a7.253,7.253,0,0,0,7.227,7.227h41.019a7.253,7.253,0,0,0,7.227-7.227V183.908A7.232,7.232,0,0,0,192.677,176.681Zm3.337,33.3a2.629,2.629,0,0,1-2.621,2.621H151.577a2.629,2.629,0,0,1-2.621-2.621v-18.28h47.058Zm0-25.165H148.956v-.993a2.629,2.629,0,0,1,2.621-2.621h41.817a2.629,2.629,0,0,1,2.621,2.621Z" transform="translate(-144.431 -176.681)"/></g><g transform="translate(0 0)"><path class="a" d="M30.216,74.659H55.658L50.482,64.176a7.242,7.242,0,0,0-9.7-3.272L4.026,79.07a7.242,7.242,0,0,0-3.272,9.7l11.524,23.293a7.242,7.242,0,0,0,8.383,3.776,10.882,10.882,0,0,1-1.53-5.583V85.76A11.112,11.112,0,0,1,30.216,74.659Z" transform="translate(0 -60.15)"/></g><g transform="translate(30.753 42.701)"><path class="a" d="M193.619,331.857a4.628,4.628,0,0,0,3.548-1.644,4.688,4.688,0,1,0,0-6.088,4.683,4.683,0,1,0-3.548,7.732Z" transform="translate(-188.931 -322.481)"/></g></g></g></svg>