<svg xmlns="http://www.w3.org/2000/svg" width="76.486" height="76.486" viewBox="0 0 76.486 76.486"><defs><style>.a{fill:#6abe0f;}</style></defs><path class="a" d="M70.872,18.291l3.71-3.709a2.241,2.241,0,0,0-1.4-3.818L66.3,10.183,65.722,3.3a2.241,2.241,0,0,0-3.817-1.4L58.2,5.615A38.244,38.244,0,0,0,11.2,65.285a38.245,38.245,0,0,0,59.67-46.995ZM62,12.446a2.242,2.242,0,0,0,2.045,2.045L68,14.824l-5.359,5.359L56.8,19.691,56.3,13.846l5.359-5.359Zm-16.134,25.8a7.626,7.626,0,1,1-4.056-6.732l-5.147,5.147a2.241,2.241,0,1,0,3.169,3.169l5.147-5.147A7.567,7.567,0,0,1,45.862,38.243Zm-.8-9.989a12.114,12.114,0,1,0,3.169,3.169l6.4-6.4a21.089,21.089,0,1,1-3.169-3.169ZM62.116,62.116A33.761,33.761,0,1,1,14.37,14.37,33.777,33.777,0,0,1,54.926,8.885L52.4,11.412a2.24,2.24,0,0,0-.656,1.527c0,.082,0,.163.007.246l.3,3.575a25.566,25.566,0,1,0,7.675,7.675l3.575.3c.063,0,.126.008.188.008l.032,0c.03,0,.059,0,.089,0,.048,0,.1-.006.145-.012l.089-.013c.047-.008.094-.016.141-.027l.088-.022c.046-.012.09-.026.135-.041l.086-.031c.044-.017.087-.036.13-.056.027-.012.055-.025.082-.039.043-.022.085-.047.127-.071l.075-.044c.044-.029.087-.061.13-.093.02-.015.04-.029.06-.044a2.221,2.221,0,0,0,.176-.157L67.6,21.561a33.777,33.777,0,0,1-5.485,40.555Zm0,0"/></svg>