<svg xmlns="http://www.w3.org/2000/svg" width="68.42" height="68.42" viewBox="0 0 68.42 68.42"><defs><style>.a{fill:#fff;}</style></defs><g transform="translate(-0.001 0)"><g transform="translate(0.001 0)"><path class="a" d="M60.3,47.381A27.763,27.763,0,0,0,21.04,8.118a27.223,27.223,0,0,0-4.176,33.506,1.168,1.168,0,0,1-.161,1.391L2.539,57.18C-.28,60-.952,63.941,1.548,66.442l.43.43c2.5,2.5,6.442,1.83,9.262-.99L25.375,51.748a1.185,1.185,0,0,1,1.421-.191A27.223,27.223,0,0,0,60.3,47.381ZM26.166,42.255a20.514,20.514,0,1,1,29.011,0A20.537,20.537,0,0,1,26.166,42.255Z" transform="translate(-0.001 0)"/><g transform="translate(25.072 11.111)"><path class="a" d="M116.617,65.4a2.867,2.867,0,0,1-2.638-3.983,18.059,18.059,0,0,1,23.642-9.583,2.865,2.865,0,1,1-2.233,5.278,12.321,12.321,0,0,0-16.13,6.538A2.866,2.866,0,0,1,116.617,65.4Z" transform="translate(-113.752 -50.409)"/></g></g></g></svg>