<svg xmlns="http://www.w3.org/2000/svg" width="114" height="76" viewBox="0 0 114 76"><defs><style>.a{fill:#fff;}</style></defs><path class="a" d="M112.1,60.8h-7.6V53.2a1.9,1.9,0,0,0-1.9-1.9H89.3V45.6h7.6a1.9,1.9,0,0,0,1.9-1.9V32.3a1.9,1.9,0,0,0-1.9-1.9H89.3V22.8a1.9,1.9,0,0,0-1.9-1.9H58.9V15.2H70.3a1.9,1.9,0,0,0,1.9-1.9V1.9A1.9,1.9,0,0,0,70.3,0H43.7a1.9,1.9,0,0,0-1.9,1.9V13.3a1.9,1.9,0,0,0,1.9,1.9H55.1v5.7H24.7a1.9,1.9,0,0,0-1.9,1.9v7.6H15.2a1.9,1.9,0,0,0-1.9,1.9V43.7a1.9,1.9,0,0,0,1.9,1.9h7.6v5.7H9.5a1.9,1.9,0,0,0-1.9,1.9v7.6H1.9A1.9,1.9,0,0,0,0,62.7V74.1A1.9,1.9,0,0,0,1.9,76h19a1.9,1.9,0,0,0,1.9-1.9V62.7a1.9,1.9,0,0,0-1.9-1.9H11.4V55.1H38v5.7H32.3a1.9,1.9,0,0,0-1.9,1.9V74.1A1.9,1.9,0,0,0,32.3,76h19a1.9,1.9,0,0,0,1.9-1.9V62.7a1.9,1.9,0,0,0-1.9-1.9H41.8V53.2a1.9,1.9,0,0,0-1.9-1.9H26.6V45.6h7.6a1.9,1.9,0,0,0,1.9-1.9V32.3a1.9,1.9,0,0,0-1.9-1.9H26.6V24.7H85.5v5.7H77.9A1.9,1.9,0,0,0,76,32.3V43.7a1.9,1.9,0,0,0,1.9,1.9h7.6v5.7H72.2a1.9,1.9,0,0,0-1.9,1.9v7.6H62.7a1.9,1.9,0,0,0-1.9,1.9V74.1A1.9,1.9,0,0,0,62.7,76h19a1.9,1.9,0,0,0,1.9-1.9V62.7a1.9,1.9,0,0,0-1.9-1.9H74.1V55.1h26.6v5.7H93.1a1.9,1.9,0,0,0-1.9,1.9V74.1A1.9,1.9,0,0,0,93.1,76h19a1.9,1.9,0,0,0,1.9-1.9V62.7A1.9,1.9,0,0,0,112.1,60.8Zm0,0"/></svg>